<?xml version="1.0" encoding="UTF-8" standalone="no"?>
<svg
   xmlns:dc="http://purl.org/dc/elements/1.1/"
   xmlns:cc="http://creativecommons.org/ns#"
   xmlns:rdf="http://www.w3.org/1999/02/22-rdf-syntax-ns#"
   xmlns:svg="http://www.w3.org/2000/svg"
   xmlns="http://www.w3.org/2000/svg"
   xmlns:sodipodi="http://sodipodi.sourceforge.net/DTD/sodipodi-0.dtd"
   xmlns:inkscape="http://www.inkscape.org/namespaces/inkscape"
   inkscape:version="1.0 (4035a4fb49, 2020-05-01)"
   sodipodi:docname="Icona_home1.svg"
   id="svg8"
   version="1.1"
   viewBox="0 0 210 297"
   height="297mm"
   width="210mm">
  <defs
     id="defs2" />
  <sodipodi:namedview
     inkscape:window-maximized="1"
     inkscape:window-y="-8"
     inkscape:window-x="-8"
     inkscape:window-height="987"
     inkscape:window-width="1680"
     showgrid="false"
     inkscape:document-rotation="0"
     inkscape:current-layer="layer1"
     inkscape:document-units="mm"
     inkscape:cy="503.34692"
     inkscape:cx="381.60601"
     inkscape:zoom="0.7"
     inkscape:pageshadow="2"
     inkscape:pageopacity="0.0"
     borderopacity="1.0"
     bordercolor="#666666"
     pagecolor="#ffffff"
     id="base" />
  <metadata
     id="metadata5">
    <rdf:RDF>
      <cc:Work
         rdf:about="">
        <dc:format>image/svg+xml</dc:format>
        <dc:type
           rdf:resource="http://purl.org/dc/dcmitype/StillImage" />
        <dc:title></dc:title>
      </cc:Work>
    </rdf:RDF>
  </metadata>
  <g
     id="layer1"
     inkscape:groupmode="layer"
     inkscape:label="Livello 1">
    <rect
       ry="12.981463"
       y="61.988094"
       x="35.529762"
       height="35.529762"
       width="136.07143"
       id="rect10"
       style="opacity:0.5;fill:#000000;stroke-width:0.264583" />
    <rect
       style="opacity:0.5;fill:#000000;stroke-width:0.264583"
       id="rect10-0"
       width="136.07143"
       height="35.529762"
       x="35.621479"
       y="114.92094"
       ry="12.981464" />
    <rect
       style="opacity:0.5;fill:#000000;stroke-width:0.264583;fill-opacity:1"
       id="rect10-2"
       width="136.07143"
       height="35.529762"
       x="35.529766"
       y="167.06546"
       ry="12.981464" />
    <path
       id="path159"
       d="M 35.529763,61.988093 Z"
       style="fill:#000000;stroke:#000000;stroke-width:0.264583px;stroke-linecap:butt;stroke-linejoin:miter;stroke-opacity:1" />
    <path
       transform="scale(0.26458333)"
       id="path165"
       d="m 171.77979,763.2556 c -15.62369,-4.75251 -29.81506,-18.17764 -34.00773,-32.17154 -1.28958,-4.30422 -2.32472,-19.53916 -2.30031,-33.85542 0.0372,-21.80171 0.7128,-27.50624 4.15971,-35.12094 5.07395,-11.2091 12.49089,-19.22521 23.07003,-24.93377 l 8.08123,-4.36066 211.12188,-0.61223 c 116.11703,-0.33672 215.79674,-0.0563 221.51047,0.62321 15.64348,1.86037 30.21845,11.56514 37.9106,25.24284 6.18737,11.00201 6.24903,11.40078 6.24692,40.4061 -0.002,28.56809 -0.14788,29.55762 -5.88169,39.90977 -3.23376,5.83844 -9.00739,13.00106 -12.83029,15.91694 -14.63204,11.16039 -7.85846,10.85761 -238.6908,10.6697 -117.3294,-0.0955 -215.60491,-0.8668 -218.39002,-1.714 z"
       style="opacity:0.5;fill:#000000;stroke-width:2.02031" />
    <path
       transform="scale(0.26458333)"
       id="path167"
       d="m 164.7218,563.37777 c -11.05904,-5.04539 -22.49163,-17.3852 -26.2056,-28.28512 -4.2858,-12.57812 -4.24106,-54.75162 0.0715,-67.40832 3.79514,-11.13815 14.69405,-22.89602 25.97081,-28.01763 7.8626,-3.57099 18.37786,-3.74649 227.00741,-3.7888 239.47603,-0.0486 224.88501,-0.78776 239.60721,12.13852 14.409,12.65126 16.40157,19.14799 16.40157,53.47702 0,27.42194 -0.42576,31.10068 -4.47601,38.6738 -5.59544,10.46236 -19.25389,22.33099 -28.727,24.96258 -4.55377,1.26503 -87.08388,1.98883 -224.38589,1.9679 -205.89714,-0.0314 -217.60273,-0.22469 -225.26402,-3.71995 z"
       style="opacity:0.5;fill:#000000;stroke-width:2.02031" />
    <path
       transform="scale(0.26458333)"
       id="path169"
       d="m 161.90299,361.81948 c -12.02882,-5.99422 -21.24982,-17.11726 -24.64604,-29.72982 -1.26699,-4.70527 -1.9067,-19.84232 -1.50925,-35.71292 0.66546,-26.57301 0.90583,-27.8953 6.80415,-37.43037 3.78634,-6.1209 9.87952,-12.21223 16.00341,-15.99857 l 9.88909,-6.11433 219.0473,-0.53171 c 143.40287,-0.3481 221.67482,0.17579 226.65593,1.51707 10.98157,2.95703 25.31474,16.37561 29.73867,27.84107 2.92172,7.57221 3.68424,15.22901 3.66818,36.83349 -0.0182,24.43708 -0.5095,28.27177 -4.72331,36.86517 -5.63718,11.49615 -17.57425,22.22477 -28.30544,25.43991 -5.72838,1.71626 -66.00125,2.34468 -224.88267,2.34468 H 172.58622 Z"
       style="opacity:0.5;fill:#000000;stroke-width:2.02031" />
    <path
       transform="scale(0.26458333)"
       id="path171"
       d="m 166.44985,760.20043 c -10.10785,-4.39809 -22.4205,-16.79202 -26.00423,-26.17589 -2.65154,-6.94296 -3.17038,-14.61768 -2.64342,-39.10212 0.64959,-30.18272 0.71212,-30.54436 6.7805,-39.21534 3.36868,-4.81342 10.51724,-11.70637 15.88569,-15.31766 l 9.76082,-6.566 h 217.22514 c 160.64953,0 219.29055,0.6188 225.15527,2.37592 10.51652,3.15082 24.49099,15.71537 29.8952,26.87897 3.96079,8.18192 4.29992,11.65242 3.70474,37.91433 -0.64878,28.62733 -0.71828,29.00632 -7.15799,39.03161 -8.61969,13.41915 -16.49738,18.90063 -30.44652,21.18543 -6.66008,1.09089 -101.22062,1.86138 -223.67,1.82249 -174.93268,-0.0556 -213.24612,-0.55213 -218.4852,-2.83174 z"
       style="opacity:0.5;fill:#000000;stroke-width:2.02031" />
    <path
       transform="scale(0.26458333)"
       id="path173"
       d="m 272.80812,565.30956 c -104.50485,-1.1692 -106.15522,-1.25085 -112.12693,-5.54774 -19.78946,-14.23933 -23.75099,-23.97121 -23.71918,-58.26838 0.0295,-31.77133 2.50885,-39.43184 16.97073,-52.43432 7.48867,-6.73296 12.08757,-9.22381 18.4622,-9.99947 14.10846,-1.71672 250.65519,-2.62452 349.92086,-1.34291 103.72265,1.33915 98.73694,0.62633 112.73256,16.11781 4.05518,4.48859 8.07797,10.68412 8.93955,13.76785 0.86158,3.08372 1.5665,19.3928 1.5665,36.24239 v 30.63562 l -6.12488,8.76033 c -3.36867,4.81818 -10.51722,11.71502 -15.88568,15.32632 l -9.76082,6.56599 H 511.28061 c -56.37633,0 -109.23082,0.30672 -117.45444,0.68159 -8.22363,0.37487 -62.68174,0.14758 -121.01805,-0.50508 z"
       style="opacity:0.5;fill:#000000;stroke-width:2.02031" />
    <path
       transform="scale(0.26458333)"
       id="path175"
       d="m 162.70149,360.39418 c -9.4112,-5.2024 -13.61181,-9.15001 -18.78496,-17.65358 l -6.66314,-10.95279 0.60222,-32.32488 c 0.60144,-32.28273 0.61012,-32.33585 6.66073,-40.73806 3.33217,-4.62725 10.16948,-11.2185 15.19401,-14.64721 l 9.1355,-6.23403 h 222.4686 222.46858 l 9.77101,6.56599 c 19.20483,12.90542 23.61486,24.986 22.66032,62.0745 -0.6296,24.46293 -0.94087,26.09607 -6.76866,35.51198 -3.35979,5.42839 -10.02712,12.62533 -14.81628,15.9932 l -8.70757,6.12339 -98.32082,1.25502 c -54.07643,0.69025 -153.32359,1.36127 -220.54925,1.49114 l -122.22845,0.23612 z"
       style="opacity:0.5;fill:#000000;stroke-width:2.02031" />
    <path
       transform="scale(0.26458333)"
       id="path177"
       d="m 168.40397,759.70926 c -6.32615,-1.25043 -21.79834,-15.49054 -25.65013,-23.60757 -2.59124,-5.46065 -3.28585,-13.48629 -3.28585,-37.96535 0,-36.71346 1.12159,-39.89222 19.38895,-54.95124 l 11.92578,-9.83123 218.88116,1.29434 c 238.71254,1.4116 224.98621,0.64482 239.48897,13.37841 14.06944,12.35313 15.75862,18.33815 15.02573,53.23835 l -0.64447,30.69051 -7.07107,9.8316 c -3.88909,5.40738 -10.70762,11.73821 -15.15229,14.06851 -8.05374,4.2225 -8.8297,4.23773 -228.29448,4.48004 -121.11729,0.13372 -222.19282,-0.14815 -224.6123,-0.62637 z"
       style="opacity:0.5;fill:#000000;stroke-width:2.02031" />
    <path
       transform="scale(0.26458333)"
       id="path179"
       d="m 211.18882,563.22058 c -28.34198,-0.7129 -45.91078,-1.97508 -48.48733,-3.48344 -6.82138,-3.99336 -18.82693,-17.50465 -21.23475,-23.89801 -3.46327,-9.19586 -4.8119,-44.76709 -2.21946,-58.54016 2.56943,-13.65083 8.97075,-22.94154 22.30581,-32.37407 l 8.5685,-6.06092 214.4829,0.0684 c 157.81739,0.0503 217.68545,0.70548 226.60473,2.47978 10.55578,2.09985 13.3246,3.70026 21.43156,12.38761 5.25722,5.63359 9.87426,12.79884 10.6066,16.46057 0.71329,3.56639 1.29688,19.4168 1.29688,35.22312 0,28.46346 -0.0558,28.81574 -5.82179,36.7755 -3.20198,4.4202 -10.36958,11.37514 -15.92803,15.45541 l -10.10625,7.41867 -178.52634,-0.39725 c -98.18948,-0.21848 -198.52734,-0.90034 -222.97303,-1.51522 z"
       style="opacity:0.5;fill:#000000;stroke-width:2.02031" />
    <path
       transform="scale(0.26458333)"
       d="M 170.37891 237.84375 L 162.5 243.55859 C 152.22973 251.00682 141.78629 263.00443 140.62695 268.68945 C 140.12126 271.1692 139.28462 286.15808 138.76758 301.99609 L 137.82812 330.79102 L 138.49609 331.80469 L 138.46875 332.20312 L 139.31445 333.04883 L 145.01562 341.70703 C 150.02602 349.31522 155.72726 354.70587 163.83789 359.50391 L 168.56641 362.30078 L 171.74414 365.47852 L 173.9043 365.45703 L 175.47461 366.38672 L 204.44336 365.77344 C 220.37632 365.4362 319.04555 364.85256 423.70898 364.47656 L 614.00586 363.79297 L 622.0625 358.46289 C 626.49321 355.53079 633.13679 348.78271 636.82617 343.46875 L 643.5332 333.80664 L 643.5332 301.48242 C 643.5332 263.52254 642.6468 260.93817 624.78516 246.91602 L 613.23047 237.8457 L 391.80469 237.84375 L 170.37891 237.84375 z M 240.70117 439.04297 C 200.77961 439.06255 173.38768 439.15435 172.28711 439.33984 C 169.50669 439.80845 168.36795 440.40042 163.19531 444.06445 C 147.04376 455.50539 140.80395 465.31431 138.82031 482.37695 C 137.99141 489.50693 138.48055 517.40647 139.57227 525.2832 C 141.05049 535.94857 142.43354 538.90811 150.21094 548.0293 C 153.8469 552.29349 160.26695 558.15437 162.69336 559.42383 C 164.49091 560.36429 174.51093 561.47625 187.08203 562.13086 C 204.79618 563.05329 254.57055 563.72499 334.56445 564.12305 C 377.34441 564.33593 457.48702 564.5494 512.6582 564.5957 L 612.96875 564.67969 L 620.15039 559.33203 C 631.70867 550.72504 641.21365 540.35093 642.91211 534.49023 C 644.12156 530.31701 644.53622 519.24887 644.2207 499.52344 C 643.85341 476.55998 643.45167 470.83664 641.97656 467.50195 C 640.01219 463.06118 636.08956 457.85643 630.28711 451.99414 C 619.3632 440.95754 618.33269 440.77384 562.60547 439.94727 C 531.27759 439.4826 388.1699 439.10425 284.28906 439.04688 C 268.70694 439.03827 254.00836 439.03644 240.70117 439.04297 z M 201.87305 633.88477 L 170.41406 633.89258 L 161.57617 641.19727 C 146.55587 653.61102 142.9683 658.39232 141.05078 668.54492 C 140.21342 672.97847 140.10937 676.2603 140.10938 698.52344 C 140.10938 730.3226 140.45534 732.91588 145.64844 740.19336 C 148.64874 744.39789 155.54392 751.30614 160.22656 754.79883 C 166.83852 759.73055 164.6378 759.35146 188.3457 759.65234 C 226.06111 760.13095 502.09099 760.11013 551.49414 759.625 C 610.46539 759.0459 615.0374 758.77155 621.44727 755.43164 C 625.6417 753.24611 634.61173 744.22102 639.48438 737.28125 L 643.30273 731.8418 L 643.67578 714.86133 C 644.15543 693.11647 643.74857 673.66426 642.71875 669.18555 C 640.87164 661.15243 638.02012 656.65452 630.07617 649.23633 C 623.67471 643.25854 621.45677 641.72755 617.34961 640.45898 C 605.85395 636.90833 584.31933 636.18088 467.65234 635.39648 C 294.33945 634.23123 231.8233 633.87577 201.87305 633.88477 z "
       style="opacity:0.5;fill:#000000;stroke-width:2.02031"
       id="path181" />
    <path
       transform="scale(0.26458333)"
       id="path192"
       d="m 173.90108,365.7328 c -0.78571,-0.2133 -2.23214,-1.10471 -3.21429,-1.98091 -0.98214,-0.8762 -4.34614,-3.16101 -7.47555,-5.07735 -7.59076,-4.64832 -14.07792,-11.23678 -20.01846,-20.33107 l -4.89753,-7.49756 0.13696,-7.1453 c 0.28026,-14.62069 1.63121,-45.90335 2.21507,-51.292 0.50807,-4.68914 1.03073,-6.22178 3.28842,-9.64285 3.60931,-5.46921 12.90699,-14.65728 20.27046,-20.0315 l 6.01937,-4.39323 h 221.58329 221.5833 l 8.87501,7.03572 c 4.88126,3.86965 10.25817,8.45 11.94867,10.17857 3.82989,3.91611 6.89517,10.29218 7.86368,16.35714 0.40777,2.55357 0.9537,17.33929 1.21317,32.85714 l 0.47176,28.21429 -4.46365,6.42857 c -5.52024,7.95027 -13.06975,15.72137 -19.80557,20.38689 l -5.12018,3.54645 -166.30839,0.67895 c -167.51711,0.6839 -246.33438,1.21862 -263.45125,1.78733 -5.10715,0.16969 -9.92858,0.13401 -10.71429,-0.0793 z"
       style="opacity:0.5;fill:#000000;stroke-width:0.714286" />
    <path
       transform="scale(0.26458333)"
       id="path194"
       d="m 412.11537,563.99651 c -201.79275,-0.62357 -242.48116,-1.4587 -249.64286,-5.12392 -2.14471,-1.09762 -8.05593,-6.66007 -12.67321,-11.92546 -9.38774,-10.70547 -10.69754,-16.38926 -10.78952,-46.82038 -0.0582,-19.25874 0.0475,-21.10648 1.50395,-26.29568 0.86161,-3.06977 2.61332,-7.56977 3.8927,-10 2.92932,-5.56437 12.55232,-15.32716 19.96886,-20.25895 l 5.4742,-3.64019 15.59722,-0.53435 c 20.258,-0.69402 405.14213,0.93972 416.09204,1.76622 10.31781,0.77878 15.67932,1.85487 19.92277,3.99863 4.7377,2.39346 16.46645,14.96638 19.26557,20.65219 l 2.22558,4.52079 0.71689,18.10995 c 0.7607,19.2167 0.31909,40.51256 -0.93843,45.25281 -1.67128,6.30003 -11.23642,16.7954 -24.11697,26.46241 l -6.14117,4.60902 -17.1431,-0.12995 c -9.4287,-0.0715 -91.87524,-0.36088 -183.21452,-0.64314 z"
       style="opacity:0.5;fill:#000000;stroke-width:0.714286" />
    <path
       transform="scale(0.26458333)"
       id="path196"
       d="m 177.82965,759.0983 c -12.21995,-0.44163 -12.14824,-0.41942 -19.10237,-5.918 -6.42118,-5.07718 -12.74733,-12.34386 -15.39117,-17.67943 l -2.29217,-4.62587 -0.22724,-29.33869 c -0.24415,-31.52171 0.0606,-35.13949 3.53304,-41.94609 2.06243,-4.0427 8.56584,-10.74697 18.39598,-18.96414 l 8.13035,-6.79629 86.86965,0.48313 c 255.03844,1.41841 328.21105,2.2732 345.74066,4.03885 14.56225,1.46677 18.07455,3.02658 27.25604,12.10443 9.09397,8.99132 11.1743,13.08951 12.20114,24.0358 0.40127,4.27768 0.62016,18.87428 0.48641,32.43689 l -0.24317,24.65929 -3.52134,4.98357 c -4.58423,6.48782 -14.94766,16.87637 -18.76859,18.81407 -4.97863,2.52481 -11.11215,2.97534 -49.85293,3.66188 -39.13776,0.69356 -374.23044,0.73669 -393.21429,0.0506 z"
       style="opacity:0.5;fill:#000000;stroke-width:0.714286" />
  </g>
</svg>
